<svg class="svg-icons" viewBox="0 0 64 64" xmlns="http://www.w3.org/2000/svg"><circle cx="43" cy="38" fill="#c4a2fc" r="5"/><path d="m43 45a7.008 7.008 0 0 0 -7 7v3h14v-3a7.008 7.008 0 0 0 -7-7z" fill="#c4a2fc"/><path d="m24 22v38a3 3 0 0 0 3 3h32a3 3 0 0 0 3-3v-38a3 3 0 0 0 -3-3h-32a3 3 0 0 0 -3 3zm6 6a3 3 0 0 1 3-3h20a3 3 0 0 1 3 3v26a3 3 0 0 1 -3 3h-20a3 3 0 0 1 -3-3z" fill="#c4a2fc"/><path d="m33 55h1v-3a9 9 0 0 1 5.184-8.139 7 7 0 1 1 7.632 0 9 9 0 0 1 5.184 8.139v3h1a1 1 0 0 0 1-1v-26a1 1 0 0 0 -1-1h-20a1 1 0 0 0 -1 1v26a1 1 0 0 0 1 1z" fill="#c4a2fc"/><g fill="#151a6a"><path d="m49 1h-44a3 3 0 0 0 -3 3v32a3 3 0 0 0 3 3h44a3 3 0 0 0 3-3v-32a3 3 0 0 0 -3-3zm1 35a1 1 0 0 1 -1 1h-44a1 1 0 0 1 -1-1v-32a1 1 0 0 1 1-1h44a1 1 0 0 1 1 1z"/><path d="m22 14a7 7 0 1 0 -10.587 6 7 7 0 0 0 -3.413 6v6a1 1 0 0 0 2 0v-6a5 5 0 0 1 10 0v6a1 1 0 0 0 2 0v-6a7 7 0 0 0 -3.413-6 7 7 0 0 0 3.413-6zm-12 0a5 5 0 1 1 5 5 5.006 5.006 0 0 1 -5-5z"/><path d="m27 9h12a1 1 0 0 0 0-2h-12a1 1 0 0 0 0 2z"/><path d="m27 13h9a1 1 0 0 0 0-2h-9a1 1 0 0 0 0 2z"/><path d="m45 19h-18a1 1 0 0 0 0 2h18a1 1 0 0 0 0-2z"/><path d="m45 23h-18a1 1 0 0 0 0 2h18a1 1 0 0 0 0-2z"/><path d="m45 27h-18a1 1 0 0 0 0 2h18a1 1 0 0 0 0-2z"/></g></svg>