<svg class="svg-icons" xmlns="http://www.w3.org/2000/svg" viewBox="0 0 64 64"><path d="M59.5,37.5A3.494,3.494,0,0,0,56.163,40H52.449a11.456,11.456,0,0,0-3.488-7.279l2.257-2.8A4.943,4.943,0,0,0,53.5,30.5a5.062,5.062,0,1,0-3.838-1.834l-2.251,2.792A11.418,11.418,0,0,0,42,29.551V25.837a3.5,3.5,0,1,0-2,0v3.714a11.414,11.414,0,0,0-5.41,1.907l-2.252-2.793A4.949,4.949,0,0,0,33.5,25.5a5,5,0,1,0-5,5,4.94,4.94,0,0,0,2.282-.577l2.257,2.8A11.456,11.456,0,0,0,29.551,40H25.837a3.5,3.5,0,1,0,0,2h3.714a11.456,11.456,0,0,0,3.488,7.279l-2.257,2.8A4.94,4.94,0,0,0,28.5,51.5a5,5,0,1,0,5,5,4.949,4.949,0,0,0-1.162-3.165l2.252-2.793A11.414,11.414,0,0,0,40,52.449v3.714a3.5,3.5,0,1,0,2,0V52.449a11.422,11.422,0,0,0,5.411-1.907l2.251,2.792A4.952,4.952,0,0,0,48.5,56.5a5,5,0,1,0,5-5,4.94,4.94,0,0,0-2.282.577l-2.257-2.8A11.456,11.456,0,0,0,52.449,42h3.714A3.493,3.493,0,1,0,59.5,37.5Z" style="fill:#c4a2fc"/><path d="M51,11A10,10,0,0,0,31.081,9.789a17.084,17.084,0,0,0-5.023-.777C26.038,9.011,26.021,9,26,9s-.027.008-.041.008a17.107,17.107,0,0,0-5.04.781A10,10,0,1,0,9.787,20.919a16.775,16.775,0,0,0,0,10.162,10,10,0,1,0,11.13,11.13,16.765,16.765,0,0,0,10.162,0A10,10,0,1,0,42.21,31.081a16.755,16.755,0,0,0,0-10.162A10.01,10.01,0,0,0,51,11ZM41,3a7.991,7.991,0,0,1,5.555,13.744,6.018,6.018,0,0,0-2.666-2.992,4,4,0,1,0-5.778,0,6.018,6.018,0,0,0-2.666,2.992A7.991,7.991,0,0,1,41,3Zm-.852,18.006A15.013,15.013,0,0,1,40.14,31H27V21H40.148ZM25,40.951a14.941,14.941,0,0,1-4.044-.824A9.986,9.986,0,0,0,16.974,33H25ZM11.861,31a15.011,15.011,0,0,1-.03-9.936c.007-.021,0-.043.008-.064H25V31ZM9,11a2,2,0,1,1,2,2A2,2,0,0,1,9,11Zm2,4a4,4,0,0,1,3.861,3,7.968,7.968,0,0,1-7.722,0A4,4,0,0,1,11,15Zm9.956-3.125A14.945,14.945,0,0,1,25,11.048V19H16.975A9.984,9.984,0,0,0,20.956,11.875ZM41,19a7.955,7.955,0,0,1-3.862-1,3.985,3.985,0,0,1,7.724,0A7.955,7.955,0,0,1,41,19Zm-2-8a2,2,0,1,1,2,2A2,2,0,0,1,39,11Zm-7.957.85A9.982,9.982,0,0,0,35.026,19H27V11.043a14.938,14.938,0,0,1,3.957.8A.809.809,0,0,0,31.043,11.85ZM3,11a8,8,0,1,1,13.555,5.745,6.016,6.016,0,0,0-2.666-2.993,4,4,0,1,0-5.778,0,6.016,6.016,0,0,0-2.666,2.993A7.976,7.976,0,0,1,3,11ZM7.139,48a3.984,3.984,0,0,1,7.722,0,7.968,7.968,0,0,1-7.722,0ZM9,41a2,2,0,1,1,2,2A2,2,0,0,1,9,41Zm7.555,5.745a6.016,6.016,0,0,0-2.666-2.993,4,4,0,1,0-5.778,0,6.016,6.016,0,0,0-2.666,2.993,8,8,0,1,1,11.11,0ZM27,40.956V33h8.026a9.988,9.988,0,0,0-3.983,7.146c-.022.006-.044,0-.066.009A14.956,14.956,0,0,1,27,40.956ZM37.139,48a3.984,3.984,0,0,1,7.722,0,7.968,7.968,0,0,1-7.722,0ZM39,41a2,2,0,1,1,2,2A2,2,0,0,1,39,41Zm10,0a7.972,7.972,0,0,1-2.445,5.745,6.016,6.016,0,0,0-2.666-2.993,4,4,0,1,0-5.778,0,6.016,6.016,0,0,0-2.666,2.993A8,8,0,1,1,49,41Z" style="fill:#151a6a"/></svg>
