<svg class="svg-icons" viewBox="0 0 64 64" xmlns="http://www.w3.org/2000/svg"><g fill="#c4a2fc"><path d="m47 62.5h8v-8a4 4 0 0 0 -8 0z"/><circle cx="51" cy="44.5" r="4"/><path d="m60 24.5h-32a3 3 0 0 0 -3 3v32a3 3 0 0 0 3 3h17v-8a6 6 0 0 1 2.69-5 6 6 0 1 1 6.62 0 6 6 0 0 1 2.69 5v8h3a3 3 0 0 0 3-3v-32a3 3 0 0 0 -3-3zm-22 14h-6a1 1 0 0 1 0-2h6a1 1 0 0 1 0 2zm6-6h-12a1 1 0 0 1 0-2h12a1 1 0 0 1 0 2z"/></g><path d="m48 7.5h-10.278a14.45 14.45 0 0 0 -23.444 0h-10.278a3 3 0 0 0 -3 3v32a3 3 0 0 0 3 3h21.764l11.789 5.9a1 1 0 0 0 1.447-.9v-5h9a3 3 0 0 0 3-3v-32a3 3 0 0 0 -3-3zm-22-4a12.492 12.492 0 0 1 3 24.621v-6.621h2a4 4 0 1 0 -4-4v2h-2v-2a4 4 0 1 0 -4 4h2v6.621a12.492 12.492 0 0 1 3-24.621zm-5 31h10v2a1 1 0 0 1 -1 1h-8a1 1 0 0 1 -1-1zm10-2h-10v-2.907a14.235 14.235 0 0 0 10 0zm-8-13h-2a2 2 0 1 1 2-2zm4 8.949c-.331.027-.662.051-1 .051s-.669-.024-1-.051v-6.949h2zm2-8.949v-2a2 2 0 1 1 2 2zm20 23a1 1 0 0 1 -1 1h-10a1 1 0 0 0 -1 1v4.382l-10.553-5.277a1 1 0 0 0 -.447-.105h-22a1 1 0 0 1 -1-1v-32a1 1 0 0 1 1-1h9.057a14.446 14.446 0 0 0 5.943 19.19v7.81a3 3 0 0 0 3 3h8a3 3 0 0 0 3-3v-7.81a14.446 14.446 0 0 0 5.943-19.19h9.057a1 1 0 0 1 1 1z" fill="#151a6a"/></svg>